<svg width="24" height="24" viewBox="0 0 24 24" fill="none" xmlns="http://www.w3.org/2000/svg">
<g transform="translate(2 2)">
<path d="M10.4968 2.63125C10.1906 2.45625 9.81246 2.45625 9.50308 2.63125L2.50308 6.63125C2.10933 6.85625 1.91558 7.31875 2.03121 7.75625C2.14683 8.19375 2.54683 8.5 2.99996 8.5H3.99996V15L2.39996 16.2C2.14683 16.3875 1.99996 16.6844 1.99996 17C1.99996 17.5531 2.44683 18 2.99996 18H17C17.5531 18 18 17.5531 18 17C18 16.6844 17.8531 16.3875 17.6 16.2L16 15V8.5H17C17.4531 8.5 17.85 8.19375 17.9656 7.75625C18.0812 7.31875 17.8875 6.85625 17.4937 6.63125L10.4937 2.63125H10.4968ZM14.5 8.5V15H12.5V8.5H14.5ZM11 8.5V15H8.99996V8.5H11ZM7.49996 8.5V15H5.49996V8.5H7.49996ZM9.99996 5C10.5531 5 11 5.44688 11 6C11 6.55312 10.5531 7 9.99996 7C9.44683 7 8.99996 6.55312 8.99996 6C8.99996 5.44688 9.44683 5 9.99996 5Z" fill="black"/>
</g>
</svg>
