<svg width="24" height="24" viewBox="0 0 24 24" fill="none" xmlns="http://www.w3.org/2000/svg">
<path d="M11.9905 20.3595C11.7763 20.3595 11.5612 20.3211 11.3453 20.2443C11.1293 20.1673 10.9392 20.0468 10.775 19.8828L9.3385 18.577C7.5655 16.9604 5.9825 15.3722 4.5895 13.8125C3.1965 12.2529 2.5 10.582 2.5 8.80005C2.5 7.38088 2.9785 6.19271 3.9355 5.23555C4.89267 4.27855 6.08083 3.80005 7.5 3.80005C8.30633 3.80005 9.10283 3.98597 9.8895 4.3578C10.676 4.72963 11.3795 5.33347 12 6.1693C12.6205 5.33347 13.324 4.72963 14.1105 4.3578C14.8972 3.98597 15.6937 3.80005 16.5 3.80005C17.9192 3.80005 19.1073 4.27855 20.0645 5.23555C21.0215 6.19271 21.5 7.38088 21.5 8.80005C21.5 10.6014 20.7917 12.2908 19.375 13.8683C17.9583 15.4458 16.3788 17.0205 14.6365 18.5923L13.2153 19.8828C13.0513 20.0468 12.8597 20.1673 12.6405 20.2443C12.4212 20.3211 12.2045 20.3595 11.9905 20.3595ZM11.2808 7.68855C10.7397 6.86421 10.1702 6.26005 9.572 5.87605C8.974 5.49205 8.28333 5.30005 7.5 5.30005C6.5 5.30005 5.66667 5.63338 5 6.30005C4.33333 6.96672 4 7.80005 4 8.80005C4 9.60255 4.25867 10.4416 4.776 11.3173C5.29333 12.193 5.94267 13.0635 6.724 13.9288C7.50533 14.7943 8.35183 15.6398 9.2635 16.4653C10.175 17.291 11.0198 18.0583 11.798 18.7673C11.8557 18.8186 11.923 18.8443 12 18.8443C12.077 18.8443 12.1443 18.8186 12.202 18.7673C12.9802 18.0583 13.825 17.291 14.7365 16.4653C15.6482 15.6398 16.4947 14.7943 17.276 13.9288C18.0573 13.0635 18.7067 12.193 19.224 11.3173C19.7413 10.4416 20 9.60255 20 8.80005C20 7.80005 19.6667 6.96672 19 6.30005C18.3333 5.63338 17.5 5.30005 16.5 5.30005C15.7167 5.30005 15.026 5.49205 14.428 5.87605C13.8298 6.26005 13.2603 6.86421 12.7192 7.68855C12.6346 7.81671 12.5282 7.91288 12.4 7.97705C12.2718 8.04105 12.1385 8.07305 12 8.07305C11.8615 8.07305 11.7282 8.04105 11.6 7.97705C11.4718 7.91288 11.3654 7.81671 11.2808 7.68855Z" fill="#C5C7C7"/>
</svg>
