<svg width="24" height="24" viewBox="0 0 24 24" fill="none" xmlns="http://www.w3.org/2000/svg">
<path fill-rule="evenodd" clip-rule="evenodd" d="M5.5 3 C4.9696 3 4.4609 3.211 4.0858 3.586 C3.7107 3.961 3.5 4.47 3.5 5 V19 C3.2348 19 2.9804 19.105 2.7929 19.293 C2.6054 19.48 2.5 19.735 2.5 20 C2.5 20.265 2.6054 20.52 2.7929 20.707 C2.9804 20.895 3.2348 21 3.5 21 H15.5 C15.7652 21 16.0196 20.895 16.2071 20.707 C16.3946 20.52 16.5 20.265 16.5 20 C16.5 19.735 16.3946 19.48 16.2071 19.293 C16.0196 19.105 15.7652 19 15.5 19 V14 H16.5 V16.5 C16.5 17.163 16.7634 17.799 17.2322 18.268 C17.7011 18.737 18.337 19 19 19 C19.663 19 20.2989 18.737 20.7678 18.268 C21.2366 17.799 21.5 17.163 21.5 16.5 V10.414 C21.4999 9.884 21.2891 9.375 20.914 9 L18.207 6.293 C18.1148 6.197 18.0044 6.121 17.8824 6.069 C17.7604 6.016 17.6292 5.989 17.4964 5.988 C17.3636 5.987 17.2319 6.012 17.109 6.062 C16.9862 6.112 16.8745 6.187 16.7806 6.281 C16.6867 6.374 16.6125 6.486 16.5622 6.609 C16.5119 6.732 16.4866 6.864 16.4877 6.996 C16.4889 7.129 16.5165 7.26 16.5689 7.382 C16.6213 7.504 16.6975 7.615 16.793 7.707 L17.893 8.808 C17.6717 9.106 17.5375 9.459 17.5055 9.828 C17.4734 10.198 17.5447 10.569 17.7115 10.9 C17.8782 11.231 18.1338 11.509 18.4497 11.704 C18.7655 11.898 19.1292 12.001 19.5 12 L19.501 16.5 C19.501 16.633 19.4483 16.76 19.3546 16.854 C19.2608 16.947 19.1336 17 19.001 17 C18.8684 17 18.7412 16.947 18.6474 16.854 C18.5537 16.76 18.501 16.633 18.501 16.5 V14 C18.501 13.47 18.2903 12.961 17.9152 12.586 C17.5401 12.211 17.0314 12 16.501 12 H15.501 V5 C15.501 4.47 15.2903 3.961 14.9152 3.586 C14.5401 3.211 14.0314 3 13.501 3 H5.5ZM13.5 10 V5 H5.5 V10 H13.5Z" fill="#1B1B1B"/>
</svg>
